<svg xmlns="http://www.w3.org/2000/svg" width="155.345" height="99.501" viewBox="0 0 155.345 99.501">
  <path id="Union_12" data-name="Union 12" d="M-506.732-820.5a2,2,0,0,1,.732-2.732l75.344-43.5a1.992,1.992,0,0,1,1.328-.241,1.99,1.99,0,0,1,1.327.241l75.344,43.5a2,2,0,0,1,.732,2.732,2,2,0,0,1-1.733,1,1.992,1.992,0,0,1-1-.268l-74.671-43.112L-504-819.768a1.989,1.989,0,0,1-1,.268A2,2,0,0,1-506.732-820.5Zm0-52a2,2,0,0,1,.732-2.732l75.344-43.5a2,2,0,0,1,1.328-.241,2,2,0,0,1,1.327.241l75.344,43.5a2,2,0,0,1,.732,2.732,2,2,0,0,1-1.733,1,1.992,1.992,0,0,1-1-.268l-74.671-43.112L-504-871.768a1.989,1.989,0,0,1-1,.269A2,2,0,0,1-506.732-872.5Z" transform="translate(507 919)" fill="#6e552f"/>
</svg>
